<svg width="1300" height="1300" viewBox="0 0 1300 1300" fill="none" xmlns="http://www.w3.org/2000/svg">
<path d="M650 1300C290.71 1300 0 1008.86 0 650C0 290.71 291.141 0 650 0C1009.29 0 1300 291.141 1300 650C1300.43 1009.29 1009.29 1300 650 1300Z" fill="#1E1A4D"/>
<mask id="mask0_26_635" style="mask-type:alpha" maskUnits="userSpaceOnUse" x="0" y="0" width="1301" height="1300">
<path d="M650 1300C290.71 1300 0 1008.86 0 650C0 290.71 291.141 0 650 0C1009.29 0 1300 291.141 1300 650C1300.43 1009.29 1009.29 1300 650 1300Z" fill="#F7C0B5"/>
</mask>
<g mask="url(#mask0_26_635)">
<path d="M1014 1197.33C1010.97 1199.5 1007.5 1201.67 1004.47 1203.83C1001 1206 997.967 1208.17 994.5 1209.9C991.467 1211.63 988.867 1213.37 985.833 1215.1C985.4 1215.53 984.967 1215.53 984.533 1215.97C974.567 1222.03 964.167 1227.67 953.767 1232.87C950.733 1234.6 947.267 1236.33 944.233 1237.63C944.233 1237.63 943.8 1238.07 943.367 1238.07C939.9 1239.8 936.433 1241.53 932.967 1243.27C926.033 1246.73 918.667 1249.77 911.733 1252.8C908.267 1254.53 904.367 1255.83 900.9 1257.13C897.433 1258.43 893.533 1260.17 890.067 1261.47C886.6 1262.77 882.7 1264.5 879.233 1265.8C879.233 1265.8 879.233 1265.8 878.8 1265.8C875.333 1267.1 871.433 1268.4 867.967 1269.7C860.167 1272.3 851.933 1274.9 844.133 1277.5C841.533 1278.37 838.5 1279.23 835.9 1280.1C827.667 1282.7 819.433 1284.87 811.2 1286.6C808.167 1287.47 805.133 1287.9 801.667 1288.77C793.867 1290.5 785.633 1292.23 777.833 1293.97C776.1 1294.4 774.8 1294.4 773.067 1294.83C770.467 1295.27 767.433 1295.7 764.833 1296.13C760.933 1296.57 757.467 1297.43 753.567 1297.87C751.833 1298.3 750.1 1298.3 748.367 1298.73C746.2 1299.17 743.6 1299.6 741 1299.6C734.067 1300.47 726.7 1301.33 719.767 1302.2C717.6 1302.63 715 1302.63 712.833 1303.07H712.4C709.367 1303.5 706.333 1303.5 703.3 1303.93C700.267 1304.37 697.233 1304.37 694.2 1304.37C692.467 1304.37 690.3 1304.8 688.567 1304.8C685.1 1304.8 682.067 1305.23 679.033 1305.23C674.7 1305.23 670.8 1305.67 666.467 1305.67C662.133 1305.67 658.233 1305.67 653.9 1305.67C650.867 1305.67 647.833 1305.67 644.8 1305.67C462.367 1303.07 297.7 1225.5 180.7 1102.43C180.7 1102.43 180.7 1102 180.267 1102C193.7 1075.57 243.534 1027.9 295.534 988.465C361.4 938.632 454.567 907.865 454.567 907.865C454.567 907.865 515.667 897.898 742.3 945.132C915.2 981.532 988.867 1129.3 1014 1197.33Z" fill="#F7D3B5"/>
<path d="M790.4 1065.17C781.3 1109.8 722.367 1136.23 623.133 1096.37C501.367 1046.97 454.567 907.865 454.567 907.865C448.067 808.198 432.9 722.832 432.9 722.832C573.733 710.698 740.133 875.365 740.133 875.365L759.2 956.832C760.933 963.765 764.4 969.832 769.6 974.165C778.7 989.765 796.467 1036.57 790.4 1065.17Z" fill="#F7D3B5"/>
<path d="M769.6 974.598C686.833 970.265 625.733 958.132 560.3 840.698C615.767 889.665 681.2 908.298 750.1 916.965L759.2 956.832C760.933 964.198 764.4 970.265 769.6 974.598Z" fill="#EFBDA5"/>
<path d="M940.767 452.432C948.567 488.832 952.467 518.298 931.233 615.365C910 712.432 950.733 809.498 848.467 898.332C779.567 958.132 659.1 969.398 562.9 903.965C530.4 881.865 500.5 851.098 476.233 810.798C457.167 779.165 435.067 749.265 410.367 721.965C376.133 684.698 334.967 609.732 355.333 477.132C388.267 261.332 601.9 236.632 728 260.465C854.1 284.298 919.533 356.232 940.767 452.432Z" fill="#F7D3B5"/>
<path d="M526.067 621.865C526.067 621.865 512.634 556.865 449.367 564.665C394.767 571.598 375.7 702.465 499.634 738.865" fill="#F7D3B5"/>
<path d="M495.734 679.498C495.734 679.498 480.134 669.532 481.867 652.198C484.467 631.832 481.867 619.265 472.334 615.365C448.5 605.398 443.734 633.132 444.6 636.598" stroke="#423232" stroke-width="13" stroke-miterlimit="10" stroke-linecap="round" stroke-linejoin="round"/>
<path d="M826.367 721.532C826.367 721.532 842.833 722.398 858.433 703.765C867.1 693.365 874.467 680.365 869.7 676.465C864.933 672.132 786.5 684.265 781.3 694.665C776.1 705.065 806.433 721.532 826.367 721.532Z" fill="#EFBDA5"/>
<path d="M839.367 575.932C839.367 575.932 840.233 617.098 866.667 663.032C878.367 683.398 860.6 716.765 822.033 722.398" stroke="#423232" stroke-width="13" stroke-miterlimit="10" stroke-linecap="round" stroke-linejoin="round"/>
<path opacity="0.42" d="M604.5 743.632C629.15 743.632 649.133 727.141 649.133 706.798C649.133 686.456 629.15 669.965 604.5 669.965C579.85 669.965 559.867 686.456 559.867 706.798C559.867 727.141 579.85 743.632 604.5 743.632Z" fill="#ED938A"/>
<path opacity="0.42" d="M924.3 670.832C923 695.098 923.434 718.932 921.7 742.765C902.634 738.432 888.767 724.132 888.767 707.232C888.767 689.032 903.933 674.298 924.3 670.832Z" fill="#ED938A"/>
<path d="M1057.78 1116.61C996.25 1037.31 900.917 1004.37 848.484 984.873C844.15 963.206 835.917 939.373 822.917 916.406C802.984 928.54 780.017 937.64 756.184 942.406L759.65 956.706C761.384 963.64 770.05 995.706 756.617 1036.87C745.35 1071.54 699.85 1087.14 622.717 1052.04C472.35 984.006 455.017 907.306 455.017 907.306C452.417 865.706 448.084 826.706 444.184 795.073C397.384 805.473 343.217 826.706 313.75 871.34C277.35 925.94 263.917 981.406 267.384 1025.61C204.117 1065.91 106.184 1127.01 74.1171 1236.21C32.5171 1378.34 39.4504 1465.44 39.4504 1465.44H1159.18C1157.88 1465.87 1141.42 1224.51 1057.78 1116.61Z" fill="#8C60D8"/>
<path d="M388.283 974.473C388.283 974.473 414.716 1077.17 530.416 1148.24" stroke="#423232" stroke-width="13" stroke-miterlimit="10" stroke-linecap="round" stroke-linejoin="round"/>
<path d="M848.05 984.873C848.05 984.873 878.817 1117.91 811.65 1179.01" stroke="#423232" stroke-width="13" stroke-miterlimit="10" stroke-linecap="round" stroke-linejoin="round"/>
<path d="M639.184 1158.64C639.184 1158.64 616.65 1224.51 622.717 1270.01" stroke="#423232" stroke-width="13" stroke-miterlimit="10" stroke-linecap="round" stroke-linejoin="round"/>
<path d="M777.417 1154.74C777.417 1154.74 794.318 1191.57 806.451 1250.07" stroke="#423232" stroke-width="13" stroke-miterlimit="10" stroke-linecap="round" stroke-linejoin="round"/>
<path d="M266.517 1026.04C266.517 1026.04 302.05 1170.77 513.517 1213.24" stroke="#423232" stroke-width="13" stroke-miterlimit="10" stroke-linecap="round" stroke-linejoin="round"/>
<path d="M626.617 1279.97L607.55 1278.24C600.617 1277.37 595.417 1270.87 596.717 1263.94L603.217 1231.44C604.95 1222.34 613.617 1215.84 622.717 1217.14C631.817 1218.01 639.184 1225.81 639.184 1235.34L639.617 1268.71C639.617 1275.21 633.55 1280.84 626.617 1279.97Z" fill="white"/>
<path d="M825.517 1260.04L807.317 1266.54C800.384 1269.14 793.017 1264.81 791.717 1257.87L783.917 1225.81C781.751 1216.71 786.517 1207.61 795.617 1204.14C804.284 1201.11 814.251 1205.01 818.151 1213.24L832.451 1243.14C835.484 1249.64 832.451 1257.44 825.517 1260.04Z" fill="white"/>
<path d="M1016.62 1250.07C1016.62 1250.07 1040.88 1386.14 1031.35 1465.87" stroke="#544D4D" stroke-width="13" stroke-miterlimit="10" stroke-linecap="round" stroke-linejoin="round"/>
<path d="M685.654 622.174C675.254 621.74 667.454 613.074 668.321 602.674L668.754 590.54C669.188 580.14 677.854 572.34 688.254 573.207C698.654 573.64 706.454 582.307 705.588 592.707L705.154 604.84C704.721 614.807 696.054 622.607 685.654 622.174Z" fill="#423232"/>
<path d="M868.088 628.673C858.554 628.24 851.188 620.007 851.621 610.473L852.054 599.207C852.488 589.673 860.721 582.307 870.254 582.74C879.788 583.173 887.154 591.407 886.721 600.94L886.288 612.207C885.854 621.74 877.621 629.107 868.088 628.673Z" fill="#423232"/>
<path d="M727.688 597.04C727.688 597.04 716.422 581.007 696.922 577.973C680.888 575.373 663.122 583.173 660.522 592.273" stroke="#423232" stroke-width="13" stroke-miterlimit="10" stroke-linecap="round" stroke-linejoin="round"/>
<path d="M855.521 600.94C855.521 600.94 855.522 587.073 875.455 587.073C891.921 587.073 898.855 602.24 898.855 602.24" stroke="#423232" stroke-width="13" stroke-miterlimit="10" stroke-linecap="round" stroke-linejoin="round"/>
<path d="M752.388 521.64C761.921 520.773 766.688 509.507 761.488 500.84C758.455 496.507 754.555 492.607 748.921 490.44C732.455 485.24 678.721 496.94 655.321 523.807C634.521 548.507 709.055 525.54 752.388 521.64Z" fill="#423232"/>
<path d="M866.788 528.573C859.422 526.407 857.255 515.573 863.322 508.64C866.355 505.173 870.688 502.14 875.455 501.273C890.188 498.673 923.988 512.107 933.522 537.673C942.188 559.773 901.888 537.24 866.788 528.573Z" fill="#423232"/>
<path d="M793.697 770.764C768.997 785.497 725.231 769.464 704.864 744.764" stroke="#423232" stroke-width="13" stroke-miterlimit="10" stroke-linecap="round" stroke-linejoin="round"/>
<path d="M971.541 366.632C940.774 477.999 852.807 455.899 767.874 429.032C468.441 334.132 520.007 624.032 516.107 618.832C506.574 600.632 486.207 578.099 447.641 582.865C397.374 589.365 377.007 700.732 471.041 746.665C468.874 766.599 454.574 783.499 438.107 795.632C393.907 758.365 325.441 686.432 299.874 582.432C290.341 544.299 294.241 512.665 298.141 487.965C310.707 411.265 358.374 395.232 358.374 395.232C360.107 314.199 444.607 224.932 586.741 227.965C729.307 230.132 1002.31 255.265 971.541 366.632Z" fill="#423232"/>
<path d="M975.007 500.532C970.674 528.699 958.541 550.365 941.641 566.399C948.141 519.165 944.674 496.632 939.041 470.199C926.907 416.032 900.907 369.232 857.574 334.566C879.241 332.832 901.341 337.599 921.274 350.165C921.274 350.165 949.874 370.099 960.707 434.232C964.174 452.866 978.907 472.799 975.007 500.532Z" fill="#423232"/>
<path d="M621.407 228.399C621.407 228.399 786.074 164.265 844.141 185.499C892.241 203.265 874.907 252.665 874.907 252.665C874.907 252.665 957.241 231.865 1001.87 285.599C1046.51 339.332 994.941 409.099 965.474 434.665C965.474 434.665 1011.84 446.799 1007.07 486.232C1001.44 535.632 941.207 565.965 941.207 565.965C941.207 565.965 962.007 523.499 958.974 482.765C955.941 442.032 960.707 412.999 930.807 383.532C900.907 353.632 829.841 381.799 753.141 343.665C676.874 305.532 621.407 228.399 621.407 228.399Z" fill="#423232"/>
<path d="M477.159 636.126C477.159 636.126 442.492 630.926 445.092 679.459C446.392 704.159 446.392 717.593 445.959 724.526C445.525 729.293 448.559 733.626 452.892 735.359C458.092 737.526 463.725 735.359 466.325 730.159C470.225 723.226 474.559 713.693 474.559 705.893C474.559 692.893 488.425 681.193 488.425 681.193C488.425 681.193 475.859 670.359 477.159 636.126Z" fill="white"/>
<path d="M582.025 1471.59C578.559 1467.69 442.492 1234.99 462.859 1147.46C476.725 1087.23 458.525 1017.89 442.492 956.793C435.992 931.659 429.925 908.259 426.459 887.459C420.392 851.493 424.725 817.259 439.459 785.626C455.492 750.093 452.892 719.326 452.892 718.893L461.559 718.026C461.559 719.326 464.159 751.826 447.259 789.093C433.392 818.993 429.492 851.926 435.125 886.159C438.592 906.526 444.659 929.926 451.159 955.059C467.625 1017.03 485.825 1087.66 471.525 1150.06C452.459 1233.26 588.092 1465.96 588.959 1466.83L582.025 1471.59Z" fill="white"/>
<path d="M446.392 704.592C446.826 714.126 446.392 720.626 446.392 724.526C445.959 729.292 448.993 733.626 453.326 735.359C458.526 737.526 464.159 735.359 466.759 730.159C470.659 723.226 474.993 713.692 474.993 705.892C474.993 705.459 474.993 704.592 474.993 704.159C465.893 707.626 455.492 710.226 446.392 704.592Z" fill="#E5E5E5"/>
<path d="M854.159 992.759C851.125 1012.69 850.692 1044.33 849.825 1081.16C848.525 1152.23 806.492 1429.13 786.125 1472.89L778.325 1469.43C797.825 1426.96 839.859 1151.36 841.159 1081.16C842.025 1044.33 842.459 1012.26 845.492 991.459C851.992 947.693 847.225 914.759 844.625 900.893C845.925 899.593 847.225 898.726 848.525 897.426C849.825 896.559 850.692 895.259 851.992 894.393C854.592 905.659 861.959 941.626 854.159 992.759Z" fill="white"/>
</g>
</svg>
